<svg width="9" height="9" viewBox="0 0 9 9" fill="none" xmlns="http://www.w3.org/2000/svg">
<path d="M6.25 1V2.55556M2.75 1V2.55556M1 4.11111H8M4.0625 5.66667H4.5V6.83333M1 2.55556C1 2.34928 1.09219 2.15145 1.25628 2.00558C1.42038 1.85972 1.64294 1.77778 1.875 1.77778H7.125C7.35706 1.77778 7.57962 1.85972 7.74372 2.00558C7.90781 2.15145 8 2.34928 8 2.55556V7.22222C8 7.4285 7.90781 7.62633 7.74372 7.77219C7.57962 7.91806 7.35706 8 7.125 8H1.875C1.64294 8 1.42038 7.91806 1.25628 7.77219C1.09219 7.62633 1 7.4285 1 7.22222V2.55556Z" stroke="#5B5D60" stroke-width="0.7" stroke-linecap="round" stroke-linejoin="round"/>
</svg>
