<svg width="9" height="9" viewBox="0 0 9 9" fill="none" xmlns="http://www.w3.org/2000/svg">
<path d="M3.33333 5.27778L4.5 4.5V2.55556M1 4.5C1 4.95963 1.09053 5.41475 1.26642 5.83939C1.44231 6.26403 1.70012 6.64987 2.02513 6.97487C2.35013 7.29988 2.73597 7.55769 3.16061 7.73358C3.58525 7.90947 4.04037 8 4.5 8C4.95963 8 5.41475 7.90947 5.83939 7.73358C6.26403 7.55769 6.64987 7.29988 6.97487 6.97487C7.29988 6.64987 7.55769 6.26403 7.73358 5.83939C7.90947 5.41475 8 4.95963 8 4.5C8 4.04037 7.90947 3.58525 7.73358 3.16061C7.55769 2.73597 7.29988 2.35013 6.97487 2.02513C6.64987 1.70012 6.26403 1.44231 5.83939 1.26642C5.41475 1.09053 4.95963 1 4.5 1C4.04037 1 3.58525 1.09053 3.16061 1.26642C2.73597 1.44231 2.35013 1.70012 2.02513 2.02513C1.70012 2.35013 1.44231 2.73597 1.26642 3.16061C1.09053 3.58525 1 4.04037 1 4.5Z" stroke="#5B5D60" stroke-width="0.7" stroke-linecap="round" stroke-linejoin="round"/>
</svg>
