<svg width="11" height="11" viewBox="0 0 11 11" fill="none" xmlns="http://www.w3.org/2000/svg">
<path d="M3.81271 7.18819L7.18796 3.81293M4.93779 2.12526L5.19825 1.82374C5.72581 1.29625 6.44129 0.999947 7.18732 1C7.93334 1.00005 8.64879 1.29646 9.17627 1.82402C9.70375 2.35157 10.0001 3.06707 10 3.81309C9.99995 4.55912 9.70354 5.27457 9.17599 5.80205L8.87559 6.06307M6.06296 8.87582L5.83963 9.17622C5.30592 9.70399 4.5856 10 3.83501 10C3.08442 10 2.3641 9.70399 1.83039 9.17622C1.56732 8.9161 1.35847 8.60638 1.21593 8.26498C1.07339 7.92359 1 7.5573 1 7.18735C1 6.81739 1.07339 6.45111 1.21593 6.10971C1.35847 5.76832 1.56732 5.45859 1.83039 5.19847L2.12516 4.93801" stroke="#27AAFF" stroke-linecap="round" stroke-linejoin="round"/>
</svg>
