<svg width="13" height="13" viewBox="0 0 13 13" fill="none" xmlns="http://www.w3.org/2000/svg">
<path d="M4.48334 5.70556L8.51667 3.62778M4.48334 7.29445L8.51667 9.37222M1 6.5C1 6.98623 1.19315 7.45255 1.53697 7.79636C1.88079 8.14018 2.3471 8.33333 2.83333 8.33333C3.31956 8.33333 3.78588 8.14018 4.1297 7.79636C4.47351 7.45255 4.66667 6.98623 4.66667 6.5C4.66667 6.01377 4.47351 5.54745 4.1297 5.20364C3.78588 4.85982 3.31956 4.66667 2.83333 4.66667C2.3471 4.66667 1.88079 4.85982 1.53697 5.20364C1.19315 5.54745 1 6.01377 1 6.5ZM8.33333 2.83333C8.33333 3.31956 8.52649 3.78588 8.8703 4.1297C9.21412 4.47351 9.68044 4.66667 10.1667 4.66667C10.6529 4.66667 11.1192 4.47351 11.463 4.1297C11.8068 3.78588 12 3.31956 12 2.83333C12 2.3471 11.8068 1.88079 11.463 1.53697C11.1192 1.19315 10.6529 1 10.1667 1C9.68044 1 9.21412 1.19315 8.8703 1.53697C8.52649 1.88079 8.33333 2.3471 8.33333 2.83333ZM8.33333 10.1667C8.33333 10.6529 8.52649 11.1192 8.8703 11.463C9.21412 11.8068 9.68044 12 10.1667 12C10.6529 12 11.1192 11.8068 11.463 11.463C11.8068 11.1192 12 10.6529 12 10.1667C12 9.68044 11.8068 9.21412 11.463 8.8703C11.1192 8.52649 10.6529 8.33333 10.1667 8.33333C9.68044 8.33333 9.21412 8.52649 8.8703 8.8703C8.52649 9.21412 8.33333 9.68044 8.33333 10.1667Z" stroke="black" stroke-linecap="round" stroke-linejoin="round"/>
</svg>
