<svg width="10" height="11" viewBox="0 0 10 11" fill="none" xmlns="http://www.w3.org/2000/svg">
<path d="M1 3H9M4 5V8M6 5V8M1.5 3L2 9C2 9.26522 2.10536 9.51957 2.29289 9.70711C2.48043 9.89464 2.73478 10 3 10H7C7.26522 10 7.51957 9.89464 7.70711 9.70711C7.89464 9.51957 8 9.26522 8 9L8.5 3M3.5 3V1.5C3.5 1.36739 3.55268 1.24021 3.64645 1.14645C3.74022 1.05268 3.86739 1 4 1H6C6.13261 1 6.25979 1.05268 6.35355 1.14645C6.44732 1.24021 6.5 1.36739 6.5 1.5V3" stroke="white" stroke-width="0.7" stroke-linecap="round" stroke-linejoin="round"/>
</svg>
