<svg width="13" height="14" viewBox="0 0 13 14" fill="none" xmlns="http://www.w3.org/2000/svg">
<path d="M1 3.66667H12M5.125 6.33333V10.3333M7.875 6.33333V10.3333M1.6875 3.66667L2.375 11.6667C2.375 12.0203 2.51987 12.3594 2.77773 12.6095C3.03559 12.8595 3.38533 13 3.75 13H9.25C9.61467 13 9.96441 12.8595 10.2223 12.6095C10.4801 12.3594 10.625 12.0203 10.625 11.6667L11.3125 3.66667M4.4375 3.66667V1.66667C4.4375 1.48986 4.50993 1.32029 4.63886 1.19526C4.7678 1.07024 4.94266 1 5.125 1H7.875C8.05734 1 8.2322 1.07024 8.36114 1.19526C8.49007 1.32029 8.5625 1.48986 8.5625 1.66667V3.66667" stroke="black" stroke-linecap="round" stroke-linejoin="round"/>
</svg>
