<svg width="8" height="9" viewBox="0 0 8 9" fill="none" xmlns="http://www.w3.org/2000/svg">
<path d="M7.70443 1.86193H6.88079C6.88079 1.86193 6.87685 1.86193 6.87291 1.86193H5.69458V0.774151C5.69458 0.567711 5.61576 0.37318 5.46995 0.22629C5.32808 0.0794001 5.13498 0 4.93005 0H3.07783C2.87291 0 2.6798 0.0794001 2.53399 0.22629C2.38818 0.37318 2.30936 0.567711 2.30936 0.774151V1.8659H1.13498C1.13498 1.8659 1.13103 1.8659 1.12709 1.8659H0.303448C0.13399 1.8659 0 2.00485 0 2.17159C0 2.33833 0.137931 2.47728 0.303448 2.47728H0.84335L1.2335 7.76136C1.2335 8.0869 1.34778 8.39259 1.54877 8.62285C1.75764 8.86105 2.0532 9 2.35665 9H5.64335C5.9468 9 6.23842 8.86105 6.45123 8.62285C6.65616 8.38862 6.7665 8.08293 6.7665 7.78121L7.15665 2.47728H7.69655C7.86601 2.47728 8 2.33833 8 2.17159C8 2.00485 7.87389 1.86193 7.70443 1.86193ZM2.92414 0.774151C2.92414 0.730481 2.9399 0.690781 2.97143 0.662991C3.00296 0.631231 3.04236 0.615351 3.08177 0.615351H4.93005C4.9734 0.615351 5.01281 0.631231 5.04039 0.662991C5.07192 0.694751 5.08769 0.734451 5.08769 0.774151V1.8659H2.92414V0.774151ZM3.38522 6.82841C3.38522 6.99912 3.24729 7.1341 3.08177 7.1341C2.91626 7.1341 2.77833 6.99515 2.77833 6.82841V4.03352C2.77833 3.86281 2.91626 3.72783 3.08177 3.72783C3.24729 3.72783 3.38522 3.86678 3.38522 4.03352V6.82841ZM5.2335 6.82841C5.2335 6.99912 5.09557 7.1341 4.93005 7.1341C4.76059 7.1341 4.6266 6.99515 4.6266 6.82841V4.03352C4.6266 3.86281 4.76453 3.72783 4.93005 3.72783C5.09951 3.72783 5.2335 3.86678 5.2335 4.03352V6.82841Z" fill="white"/>
</svg>
