<svg width="12" height="12" viewBox="0 0 12 12" fill="none" xmlns="http://www.w3.org/2000/svg">
<path d="M7.19764 2.19284L9.80717 4.80237M1 11H3.60953L10.4595 4.14998C10.6309 3.97864 10.7668 3.77522 10.8595 3.55135C10.9523 3.32748 11 3.08753 11 2.84522C11 2.6029 10.9523 2.36296 10.8595 2.13908C10.7668 1.91521 10.6309 1.7118 10.4595 1.54045C10.2882 1.36911 10.0848 1.23319 9.86092 1.14046C9.63704 1.04773 9.3971 1 9.15478 1C8.91247 1 8.67252 1.04773 8.44865 1.14046C8.22478 1.23319 8.02136 1.36911 7.85002 1.54045L1 8.39047V11Z" stroke="black" stroke-linecap="round" stroke-linejoin="round"/>
</svg>
