<svg width="29" height="17" viewBox="0 0 29 17" fill="none" xmlns="http://www.w3.org/2000/svg">
<rect width="29" height="17" rx="1" fill="#27AAFF"/>
<path d="M5.1593 12V5.7H5.7083L8.5883 10.614H8.3003L11.1533 5.7H11.7023V12H11.0633V6.699H11.2163L8.5883 11.199H8.2733L5.6273 6.699H5.7983V12H5.1593ZM13.755 12V5.7H16.113C16.647 5.7 17.106 5.787 17.49 5.961C17.874 6.129 18.168 6.375 18.372 6.699C18.582 7.017 18.687 7.404 18.687 7.86C18.687 8.304 18.582 8.688 18.372 9.012C18.168 9.33 17.874 9.576 17.49 9.75C17.106 9.924 16.647 10.011 16.113 10.011H14.124L14.421 9.696V12H13.755ZM14.421 9.75L14.124 9.426H16.095C16.725 9.426 17.202 9.291 17.526 9.021C17.856 8.745 18.021 8.358 18.021 7.86C18.021 7.356 17.856 6.966 17.526 6.69C17.202 6.414 16.725 6.276 16.095 6.276H14.124L14.421 5.961V9.75ZM19.2765 10.344V9.876L22.6155 5.7H23.3355L20.0235 9.876L19.6725 9.768H24.7395V10.344H19.2765ZM22.8315 12V10.344L22.8495 9.768V8.31H23.4795V12H22.8315Z" fill="white"/>
</svg>
