<svg width="78" height="78" viewBox="0 0 78 78" fill="none" xmlns="http://www.w3.org/2000/svg">
<path d="M39 77C59.9868 77 77 59.9868 77 39C77 18.0132 59.9868 1 39 1C18.0132 1 1 18.0132 1 39C1 59.9868 18.0132 77 39 77Z" fill="#BEE6FF" stroke="#27AAFF" stroke-width="2" stroke-miterlimit="10" stroke-linecap="round" stroke-linejoin="round"/>
<path d="M39 67.5C54.7401 67.5 67.5 54.7401 67.5 39C67.5 23.2599 54.7401 10.5 39 10.5C23.2599 10.5 10.5 23.2599 10.5 39C10.5 54.7401 23.2599 67.5 39 67.5Z" fill="white" stroke="#27AAFF" stroke-width="2" stroke-miterlimit="10" stroke-linecap="round" stroke-linejoin="round"/>
<path d="M39 49.6875C44.9025 49.6875 49.6875 44.9025 49.6875 39C49.6875 33.0975 44.9025 28.3125 39 28.3125C33.0975 28.3125 28.3125 33.0975 28.3125 39C28.3125 44.9025 33.0975 49.6875 39 49.6875Z" fill="#27AAFF"/>
</svg>
