<svg width="14" height="14" viewBox="0 0 14 14" fill="none" xmlns="http://www.w3.org/2000/svg">
<path d="M10.3333 4.99996C10.3333 4.65875 10.2031 4.31753 9.9428 4.05719C9.68247 3.79684 9.3412 3.66667 9 3.66667M9 9C11.2091 9 13 7.20913 13 5C13 2.79086 11.2091 1 9 1C6.79087 1 5 2.79086 5 5C5 5.18245 5.01221 5.36205 5.03587 5.53803C5.07479 5.82747 5.09424 5.9722 5.08115 6.06373C5.0675 6.15913 5.05013 6.21047 5.00313 6.2946C4.958 6.37533 4.87847 6.45487 4.71942 6.61393L1.31242 10.0209C1.19712 10.1362 1.13947 10.1939 1.09824 10.2611C1.06169 10.3208 1.03475 10.3858 1.01842 10.4539C1 10.5306 1 10.6121 1 10.7751V11.9333C1 12.3067 1 12.4934 1.07266 12.636C1.13658 12.7615 1.23857 12.8634 1.36401 12.9273C1.50661 13 1.6933 13 2.06667 13H3.66667V11.6667H5V10.3333H6.33333L7.38607 9.2806C7.54513 9.12153 7.62467 9.042 7.7054 8.99687C7.78953 8.94987 7.84087 8.93247 7.93627 8.91887C8.0278 8.90573 8.17253 8.9252 8.462 8.96413C8.63793 8.9878 8.81753 9 9 9Z" stroke="black" stroke-width="1.1" stroke-linecap="round" stroke-linejoin="round"/>
</svg>
