<svg width="13" height="7" viewBox="0 0 13 7" fill="none" xmlns="http://www.w3.org/2000/svg">
<path d="M3.65271 0.146692C3.48535 -0.0241721 3.22681 -0.0459256 3.03671 0.0822385L2.96019 0.146692L0.229357 2.93478C-0.0763628 3.24714 -0.0763628 3.75327 0.229357 4.06564L2.96019 6.85372C3.15145 7.04899 3.46145 7.04899 3.65271 6.85372C3.84396 6.65846 3.84396 6.34195 3.65271 6.14669L1.06056 3.50021L3.65271 0.853723L3.71584 0.775598C3.84137 0.581519 3.82006 0.317555 3.65271 0.146692Z" fill="#262262"/>
<path d="M9.34729 6.85348C9.51465 7.02434 9.77319 7.04609 9.96329 6.91793L10.0398 6.85348L12.7706 4.06539C13.0764 3.75303 13.0764 3.2469 12.7706 2.93453L10.0398 0.146445C9.84855 -0.0488172 9.53855 -0.0488172 9.34729 0.146445C9.15604 0.341707 9.15604 0.658214 9.34729 0.853476L11.9394 3.49996L9.34729 6.14644L9.28416 6.22457C9.15863 6.41865 9.17994 6.68261 9.34729 6.85348Z" fill="#262262"/>
<ellipse cx="4.48973" cy="3.5" rx="0.489733" ry="0.5" fill="#262262"/>
<ellipse cx="6.44872" cy="3.5" rx="0.489733" ry="0.5" fill="#262262"/>
<ellipse cx="8.4077" cy="3.5" rx="0.489733" ry="0.5" fill="#262262"/>
</svg>
