<svg width="12" height="14" viewBox="0 0 12 14" fill="none" xmlns="http://www.w3.org/2000/svg">
<path d="M3.14286 5.00001V3.66667C3.14286 2.95943 3.44388 2.28115 3.97969 1.78105C4.51551 1.28095 5.24224 1 6 1C6.75776 1 7.48449 1.28095 8.02031 1.78105C8.55612 2.28115 8.85714 2.95943 8.85714 3.66667V5.00001M1 6.33332C1 5.9797 1.15051 5.64056 1.41842 5.39051C1.68633 5.14046 2.04969 4.99999 2.42857 4.99999H9.57143C9.95031 4.99999 10.3137 5.14046 10.5816 5.39051C10.8495 5.64056 11 5.9797 11 6.33332V11.6667C11 12.0203 10.8495 12.3594 10.5816 12.6095C10.3137 12.8595 9.95031 13 9.57143 13H2.42857C2.04969 13 1.68633 12.8595 1.41842 12.6095C1.15051 12.3594 1 12.0203 1 11.6667V6.33332ZM5.28571 8.99999C5.28571 9.1768 5.36097 9.34637 5.49492 9.4714C5.62888 9.59642 5.81056 9.66666 6 9.66666C6.18944 9.66666 6.37112 9.59642 6.50508 9.4714C6.63903 9.34637 6.71429 9.1768 6.71429 8.99999C6.71429 8.82318 6.63903 8.65361 6.50508 8.52859C6.37112 8.40356 6.18944 8.33332 6 8.33332C5.81056 8.33332 5.62888 8.40356 5.49492 8.52859C5.36097 8.65361 5.28571 8.82318 5.28571 8.99999Z" stroke="black" stroke-width="1.1" stroke-linecap="round" stroke-linejoin="round"/>
</svg>
